<?xml version="1.0" encoding="UTF-8" standalone="no"?>
<!-- Created with Inkscape (http://www.inkscape.org/) -->

<svg
   width="42mm"
   height="42mm"
   viewBox="0 0 42 42"
   version="1.1"
   id="svg763"
   inkscape:version="1.2.2 (b0a8486541, 2022-12-01)"
   xmlns:inkscape="http://www.inkscape.org/namespaces/inkscape"
   xmlns:sodipodi="http://sodipodi.sourceforge.net/DTD/sodipodi-0.dtd"
   xmlns="http://www.w3.org/2000/svg"
   xmlns:svg="http://www.w3.org/2000/svg">
  <sodipodi:namedview
     id="namedview765"
     pagecolor="#ffffff"
     bordercolor="#000000"
     borderopacity="0.25"
     inkscape:showpageshadow="2"
     inkscape:pageopacity="0.0"
     inkscape:pagecheckerboard="0"
     inkscape:deskcolor="#d1d1d1"
     inkscape:document-units="mm"
     showgrid="false"
     showguides="false"
     inkscape:zoom="3.814845"
     inkscape:cx="27.524054"
     inkscape:cy="136.96493"
     inkscape:window-width="2560"
     inkscape:window-height="960"
     inkscape:window-x="0"
     inkscape:window-y="1112"
     inkscape:window-maximized="1"
     inkscape:current-layer="layer1" />
  <defs
     id="defs760" />
  <g
     inkscape:label="Layer 1"
     inkscape:groupmode="layer"
     id="layer1"
     transform="translate(-0.0314899,-5.9237619)">
    <path
       id="rect819-6"
       style="fill:none;fill-rule:evenodd;stroke:#ffffff;stroke-width:1.5;stroke-linecap:round;stroke-linejoin:round;stroke-dasharray:none;paint-order:markers fill stroke"
       d="M 7.31281,13.635589 C 6.2683288,13.603682 5.4266075,14.424873 5.4266075,15.405068 V 30.219245 L 10.974584,29.774897 9.7616339,22.865043 39.798,22.268503 8.113688,13.671629 8.111378,13.659989 Z"
       sodipodi:nodetypes="ssccccccs" />
    <path
       id="rect819"
       style="fill:none;fill-rule:evenodd;stroke:#ffffff;stroke-width:1.5;stroke-linecap:round;stroke-linejoin:round;stroke-dasharray:none;paint-order:markers fill stroke"
       d="m 2.6652953,22.221793 c -1.0449761,0 -1.8862024,0.788639 -1.8862024,1.768833 v 21.405741 c 0,0.980194 0.8412263,1.769328 1.8862024,1.769328 H 39.326392 c 1.044977,0 1.886202,-0.789134 1.886202,-1.769328 V 23.990626 c 0,-0.980194 -0.841225,-1.768833 -1.886202,-1.768833 z m 1.0096291,9.239708 c 0.9027544,-0.108679 1.5519876,0.62526 1.5482362,1.382364 l -0.00922,1.8597 C 5.2101877,35.46067 4.6730698,36.114188 3.6749182,36.043578 3.0792668,36.001446 2.5970171,35.433821 2.597017,34.676707 V 32.82837 c 0,-0.813327 0.4850926,-1.295504 1.0779012,-1.366869 z"
       sodipodi:nodetypes="ssssssssssssssss" />
  </g>
</svg>
