<?xml version="1.0" encoding="UTF-8" standalone="no"?>
<!-- Created with Inkscape (http://www.inkscape.org/) -->

<svg
   width="13.167893mm"
   height="13.980275mm"
   viewBox="0 0 13.167893 13.980275"
   version="1.1"
   id="svg5"
   inkscape:version="1.2.2 (b0a8486541, 2022-12-01)"
   sodipodi:docname="logo.svg"
   xmlns:inkscape="http://www.inkscape.org/namespaces/inkscape"
   xmlns:sodipodi="http://sodipodi.sourceforge.net/DTD/sodipodi-0.dtd"
   xmlns="http://www.w3.org/2000/svg"
   xmlns:svg="http://www.w3.org/2000/svg">
  <sodipodi:namedview
     inkscape:zoom="9.2944142"
     inkscape:cx="21.572096"
     inkscape:cy="33.29957"
     inkscape:window-width="1280"
     inkscape:window-height="960"
     inkscape:window-x="1280"
     inkscape:window-y="1112"
     inkscape:window-maximized="0"
     inkscape:deskcolor="#ffffff"
     inkscape:current-layer="text111"
     id="namedview1767"
     pagecolor="#ffffff"
     bordercolor="#000000"
     borderopacity="0.25"
     inkscape:showpageshadow="2"
     inkscape:pageopacity="0.0"
     inkscape:pagecheckerboard="0"
     inkscape:document-units="mm"
     showgrid="false"
     showguides="true">
    <inkscape:grid
       type="xygrid"
       id="grid221"
       originx="226.32201"
       originy="-82.363563" />
  </sodipodi:namedview>
  <defs
     id="defs1769" />
  <g
     inkscape:label="Layer 1"
     id="layer1"
     inkscape:groupmode="layer"
     transform="translate(226.32205,-82.363558)">
    <g
       aria-label="e"
       transform="matrix(0.2715036,0,0,0.29169496,6.3622537,-9.5090681)"
       id="text111"
       style="font-size:42.6667px;white-space:pre;shape-inside:url(#rect113)">
      <path
         sodipodi:type="star"
         style="fill:#ff8080;fill-opacity:1;fill-rule:evenodd;stroke:#ffd5d5;stroke-width:1;stroke-linecap:round;stroke-linejoin:bevel;stroke-opacity:0.994299"
         id="path929"
         inkscape:flatsided="false"
         sodipodi:sides="2"
         sodipodi:cx="21.353329"
         sodipodi:cy="0.58816779"
         sodipodi:r1="14.728809"
         sodipodi:r2="13.89165"
         sodipodi:arg1="2.2595054"
         sodipodi:arg2="3.8303017"
         inkscape:rounded="0"
         inkscape:randomized="0"
         d="M 11.992566,11.959797 10.628042,-8.2405456 30.714091,-10.783461 32.078615,9.4168812 Z"
         transform="matrix(1.764589,-0.46724789,0.50527856,1.6531811,-870.74816,347.93012)"
         inkscape:transform-center-x="0.13815481"
         inkscape:transform-center-y="-0.18881233" />
      <path
         d="m -822.54035,338.74807 v 1.875 h -17.62501 q 0.25,3.95833 2.375,6.04167 2.14584,2.0625 5.95834,2.0625 2.20833,0 4.27084,-0.54167 2.08333,-0.54166 4.125,-1.625 v 3.625 q -2.0625,0.875 -4.22917,1.33334 -2.16667,0.45833 -4.39584,0.45833 -5.58333,0 -8.85417,-3.25 -3.25,-3.25 -3.25,-8.79167 0,-5.72917 3.08333,-9.08334 3.10417,-3.37501 8.35418,-3.37501 4.70833,0 7.4375,3.04167 2.75,3.02084 2.75,8.22918 z m -3.83333,-1.12501 q -0.0417,-3.14583 -1.77084,-5.02083 -1.70833,-1.875 -4.54167,-1.875 -3.20833,0 -5.14583,1.8125 -1.91667,1.8125 -2.20834,5.10417 z"
         id="path1747"
         class="UnoptimicedTransforms" />
    </g>
  </g>
</svg>
