<?xml version="1.0" encoding="UTF-8" standalone="no"?>
<!-- Created with Inkscape (http://www.inkscape.org/) -->

<svg
   width="42mm"
   height="42mm"
   viewBox="0 0 42 42"
   version="1.1"
   id="svg5"
   sodipodi:docname="searchPlain.svg"
   inkscape:version="1.2.2 (b0a8486541, 2022-12-01)"
   xmlns:inkscape="http://www.inkscape.org/namespaces/inkscape"
   xmlns:sodipodi="http://sodipodi.sourceforge.net/DTD/sodipodi-0.dtd"
   xmlns="http://www.w3.org/2000/svg"
   xmlns:svg="http://www.w3.org/2000/svg">
  <sodipodi:namedview
     id="namedview141"
     pagecolor="#ffffff"
     bordercolor="#000000"
     borderopacity="0.25"
     inkscape:showpageshadow="2"
     inkscape:pageopacity="0.0"
     inkscape:pagecheckerboard="0"
     inkscape:deskcolor="#d1d1d1"
     inkscape:document-units="mm"
     showgrid="false"
     inkscape:zoom="3.603373"
     inkscape:cx="79.370079"
     inkscape:cy="79.370079"
     inkscape:window-width="2560"
     inkscape:window-height="997"
     inkscape:window-x="0"
     inkscape:window-y="1112"
     inkscape:window-maximized="1"
     inkscape:current-layer="layer1" />
  <defs
     id="defs2" />
  <g
     id="layer1"
     transform="matrix(0.90902619,0.14301386,-0.11886906,1.0792806,5.1764599,-4.1248065)">
    <path
       id="path364"
       style="fill:#f2f2f2;fill-rule:evenodd;stroke:#ffffff;stroke-width:0.998696;stroke-linecap:square;stroke-opacity:0.994299"
       d="M 41.395727,11.040005 A 11.809122,10.433044 0 0 1 29.586605,21.473049 11.809122,10.433044 0 0 1 17.777483,11.040005 11.809122,10.433044 0 0 1 29.586605,0.6069603 11.809122,10.433044 0 0 1 41.395727,11.040005 Z" />
    <path
       id="path364-6"
       style="fill:#e6e6e6;fill-rule:evenodd;stroke:#ffffff;stroke-width:0.525314;stroke-linecap:square;stroke-opacity:0.994299"
       transform="matrix(0.99974426,-0.02261438,0.02244288,0.99974813,0,0)"
       d="m 30.647528,11.584615 a 1.4792944,1.3118984 0 0 1 -1.479294,1.311898 1.4792944,1.3118984 0 0 1 -1.479295,-1.311898 1.4792944,1.3118984 0 0 1 1.479295,-1.311899 1.4792944,1.3118984 0 0 1 1.479294,1.311899 z" />
    <path
       id="path1276"
       style="fill:#808080;fill-rule:evenodd;stroke:#ffffff;stroke-width:4.05568;stroke-linecap:round;stroke-opacity:0.994299"
       d="m 16.787109,24.794922 -0.109375,0.103516 -0.002,0.002 -3.164062,3.267578 z m -3.27539,3.373047 -0.962891,0.992187 L 1.7617188,40.310547 Z M 12.548828,29.160156 15.125,26.498047 4.8632812,37.078125 Z m 2.576172,-2.662109 1.550781,-1.597656 -0.04687,0.04297 -0.453125,0.46875 z" />
    <path
       id="path591"
       style="fill:#808080;fill-rule:evenodd;stroke:#ffffff;stroke-width:4.05039;stroke-linecap:round;stroke-dasharray:none;stroke-opacity:0.994299"
       d="M 16.703124,24.932305 4.7998948,37.206027 16.722073,24.923336 16.564526,25.070775 16.1125,25.540968 1.6984491,40.438978" />
    <path
       style="fill:#808080;fill-rule:evenodd;stroke:#ffffff;stroke-width:1.15691;stroke-linecap:round;stroke-dasharray:none;stroke-opacity:0.994299"
       d="m 21.96753,19.192606 -3.903342,4.16443 2.136395,-2.293019 1.817082,-1.950293 -4.975594,5.342499"
       id="path591-3" />
    <path
       style="fill:#ffffff;fill-rule:evenodd;stroke:#ffffff;stroke-width:0.175673;stroke-linecap:round;stroke-dasharray:none;stroke-opacity:0.994299;paint-order:stroke fill markers"
       d="m 28.759077,11.836413 c -0.6397,-0.337787 -0.754567,-1.153527 -0.231235,-1.642158 0.748788,-0.6991419 2.112608,-0.2438507 2.112608,0.705264 0,0.65926 -0.478932,1.070809 -1.239921,1.065469 -0.272869,-0.0019 -0.480341,-0.0435 -0.641452,-0.128575 z"
       id="path1645" />
  </g>
</svg>
